<?xml version="1.0" encoding="UTF-8"?>
<svg xmlns="http://www.w3.org/2000/svg" width="241.508mm" height="342.899mm" viewBox="0.149422 0.221405 241.508362 342.899200">
    <rect transform="matrix(-0.699420 0.000000 0.000000 -1.594880 -120.709000 171.671005)" style="stroke:#ff8000;stroke-width:0.05mm;fill:none" x="-172.500000" y="-107.500000" width="345.000000" height="215.000000"/>
    <g transform="matrix(-1.000000 0.000000 0.000000 1.000000 0.000000 0.000000)">
        <rect transform="matrix(1.060020 0.000000 0.000000 1.234360 175.294998 267.100006)" style="stroke:#0000ff;stroke-width:0.05mm;fill:none" x="-48.536858" y="-59.545219" width="97.073715" height="119.090439"/>
        <circle transform="matrix(1.587500 0.000000 0.000000 1.587500 222.315002 311.084015)" style="stroke:#ff8000;stroke-width:0.05mm;fill:none" r="1.000000"/>
        <circle transform="matrix(1.587500 0.000000 0.000000 1.587500 127.065002 311.084015)" style="stroke:#ff8000;stroke-width:0.05mm;fill:none" r="1.000000"/>
        <g transform="translate(0.000000 -0.038788)">
            <ellipse transform="matrix(0.529168 0.000000 0.000000 -0.793752 222.250000 279.399994)" style="stroke:#ff8000;stroke-width:0.05mm;fill:none" rx="3.000000" ry="2.000000"/>
            <ellipse transform="matrix(0.529168 0.000000 0.000000 -0.793752 222.250000 234.949997)" style="stroke:#ff8000;stroke-width:0.05mm;fill:none" rx="3.000000" ry="2.000000"/>
            <ellipse transform="matrix(0.529167 0.000000 0.000000 -0.793752 127.000000 279.399994)" style="stroke:#ff8000;stroke-width:0.05mm;fill:none" rx="3.000000" ry="2.000000"/>
            <ellipse transform="matrix(0.529167 0.000000 0.000000 -0.793752 127.000000 234.949997)" style="stroke:#ff8000;stroke-width:0.05mm;fill:none" rx="3.000000" ry="2.000000"/>
        </g>
    </g>
    <g transform="matrix(-1.000000 0.000000 0.000000 1.000000 0.000000 0.000000)">
        <circle transform="matrix(1.587500 0.000000 0.000000 1.587500 17.282000 311.084015)" style="stroke:#ff8000;stroke-width:0.05mm;fill:none" r="1.000000"/>
        <g transform="translate(-109.782997 -0.038788)">
            <ellipse transform="matrix(0.529168 0.000000 0.000000 -0.793752 222.250000 279.399994)" style="stroke:#ff8000;stroke-width:0.05mm;fill:none" rx="3.000000" ry="2.000000"/>
            <ellipse transform="matrix(0.529168 0.000000 0.000000 -0.793752 222.250000 234.949997)" style="stroke:#ff8000;stroke-width:0.05mm;fill:none" rx="3.000000" ry="2.000000"/>
            <ellipse transform="matrix(0.529167 0.000000 0.000000 -0.793752 127.000000 279.399994)" style="stroke:#ff8000;stroke-width:0.05mm;fill:none" rx="3.000000" ry="2.000000"/>
            <ellipse transform="matrix(0.529167 0.000000 0.000000 -0.793752 127.000000 234.949997)" style="stroke:#ff8000;stroke-width:0.05mm;fill:none" rx="3.000000" ry="2.000000"/>
        </g>
        <circle transform="matrix(1.587500 0.000000 0.000000 1.587500 112.531998 311.084015)" style="stroke:#ff8000;stroke-width:0.05mm;fill:none" r="1.000000"/>
        <rect transform="matrix(1.060020 0.000000 0.000000 1.234360 65.512001 267.100006)" style="stroke:#0000ff;stroke-width:0.05mm;fill:none" x="-48.536858" y="-59.545219" width="97.073715" height="119.090439"/>
    </g>
    <g transform="matrix(-1.000000 0.000000 0.000000 1.000000 0.000000 0.000000)">
        <ellipse transform="matrix(0.529167 0.000000 0.000000 -0.793751 120.650002 181.837006)" style="stroke:#ff8000;stroke-width:0.05mm;fill:none" rx="3.000000" ry="2.000000"/>
        <ellipse transform="matrix(0.529168 0.000000 0.000000 -0.793752 190.500000 181.837006)" style="stroke:#ff8000;stroke-width:0.05mm;fill:none" rx="3.000000" ry="2.000000"/>
        <ellipse transform="matrix(0.529166 0.000000 0.000000 -0.793750 50.799999 181.837006)" style="stroke:#ff8000;stroke-width:0.05mm;fill:none" rx="3.000000" ry="2.000000"/>
        <rect transform="matrix(1.001240 0.000000 0.000000 0.907142 120.500000 181.201996)" style="stroke:#0000ff;stroke-width:0.05mm;fill:none" x="-120.500000" y="-10.500000" width="241.000000" height="21.000000"/>
    </g>
    <g transform="matrix(-1.000000 0.000000 0.000000 1.000000 0.000000 0.000000)">
        <circle transform="matrix(0.634520 0.000000 0.000000 0.634518 200.126007 11.566200)" style="stroke:#ff8000;stroke-width:0.05mm;fill:none" r="2.501900"/>
        <circle transform="matrix(0.634520 0.000000 0.000000 0.634518 200.126007 166.505997)" style="stroke:#ff8000;stroke-width:0.05mm;fill:none" r="2.501900"/>
        <circle transform="matrix(0.634520 0.000000 0.000000 0.634518 42.645802 166.505997)" style="stroke:#ff8000;stroke-width:0.05mm;fill:none" r="2.501900"/>
        <circle transform="matrix(0.634520 0.000000 0.000000 0.634518 42.645802 34.426201)" style="stroke:#ff8000;stroke-width:0.05mm;fill:none" r="2.501900"/>
        <rect transform="matrix(0.790934 0.000000 0.000000 1.049700 121.398003 86.586700)" style="stroke:#0000ff;stroke-width:0.05mm;fill:none" x="-107.581696" y="-81.061554" width="215.163391" height="162.123108"/>
    </g>
    <path transform="matrix(-1.000000 0.000000 0.000000 1.000000 100.007004 -9.990020)" style="stroke:#00e0e0;stroke-width:0.05mm;fill:none" d="M310.000000,210.000000L330.000000,210.000000L330.000000,230.000000L330.000000,230.000000L330.000000,230.000000"/>
    <path transform="matrix(-1.000000 0.000000 0.000000 -1.000000 100.000999 509.987000)" style="stroke:#00e0e0;stroke-width:0.05mm;fill:none" d="M310.000000,210.000000L330.000000,210.000000L330.000000,230.000000L330.000000,230.000000L330.000000,230.000000"/>
    <path transform="matrix(1.000000 0.000000 0.000000 -1.000000 -490.011993 509.993988)" style="stroke:#00e0e0;stroke-width:0.05mm;fill:none" d="M310.000000,210.000000L330.000000,210.000000L330.000000,230.000000L330.000000,230.000000L330.000000,230.000000"/>
    <path transform="translate(-489.972992 -9.990020)" style="stroke:#00e0e0;stroke-width:0.05mm;fill:none" d="M310.000000,210.000000L330.000000,210.000000L330.000000,230.000000L330.000000,230.000000L330.000000,230.000000"/>
    <circle transform="matrix(-1.587500 0.000000 0.000000 1.587500 -164.082001 214.009003)" style="stroke:#ff8000;stroke-width:0.05mm;fill:none" r="1.000000"/>
    <circle transform="matrix(-1.587500 0.000000 0.000000 1.587500 -226.337997 214.009003)" style="stroke:#ff8000;stroke-width:0.05mm;fill:none" r="1.000000"/>
    <circle transform="matrix(-1.587500 0.000000 0.000000 1.587500 -164.082001 290.609009)" style="stroke:#ff8000;stroke-width:0.05mm;fill:none" r="1.000000"/>
    <circle transform="matrix(-1.587500 0.000000 0.000000 1.587500 -226.313995 290.609009)" style="stroke:#ff8000;stroke-width:0.05mm;fill:none" r="1.000000"/>
    <path transform="matrix(-1.000000 0.000000 0.000000 1.000000 249.636993 -9.990020)" style="stroke:#00e0e0;stroke-width:0.05mm;fill:none" d="M310.000000,210.000000L330.000000,210.000000L330.000000,230.000000L330.000000,230.000000L330.000000,230.000000"/>
    <path transform="matrix(-1.000000 0.000000 0.000000 -1.000000 249.630005 509.987000)" style="stroke:#00e0e0;stroke-width:0.05mm;fill:none" d="M310.000000,210.000000L330.000000,210.000000L330.000000,230.000000L330.000000,230.000000L330.000000,230.000000"/>
    <path transform="matrix(1.000000 0.000000 0.000000 -1.000000 -340.382996 509.993988)" style="stroke:#00e0e0;stroke-width:0.05mm;fill:none" d="M310.000000,210.000000L330.000000,210.000000L330.000000,230.000000L330.000000,230.000000L330.000000,230.000000"/>
    <path transform="translate(-340.342987 -9.990020)" style="stroke:#00e0e0;stroke-width:0.05mm;fill:none" d="M310.000000,210.000000L330.000000,210.000000L330.000000,230.000000L330.000000,230.000000L330.000000,230.000000"/>
    <circle transform="matrix(-1.587500 0.000000 0.000000 1.587500 -14.317100 214.009003)" style="stroke:#ff8000;stroke-width:0.05mm;fill:none" r="1.000000"/>
    <circle transform="matrix(-1.587500 0.000000 0.000000 1.587500 -76.572998 214.009003)" style="stroke:#ff8000;stroke-width:0.05mm;fill:none" r="1.000000"/>
    <circle transform="matrix(-1.587500 0.000000 0.000000 1.587500 -76.549004 290.609009)" style="stroke:#ff8000;stroke-width:0.05mm;fill:none" r="1.000000"/>
    <circle transform="matrix(-1.587500 0.000000 0.000000 1.587500 -14.317100 290.609009)" style="stroke:#ff8000;stroke-width:0.05mm;fill:none" r="1.000000"/>
    <path transform="matrix(-0.500000 0.000000 0.000000 0.500000 -44.387501 115.971001)" style="stroke:#00e0e0;stroke-width:0.05mm;fill:none" d="M310.000000,210.000000L330.000000,210.000000L330.000000,230.000000L330.000000,230.000000L330.000000,230.000000"/>
    <path transform="matrix(-0.500000 0.000000 0.000000 -0.500000 -44.362598 425.984985)" style="stroke:#00e0e0;stroke-width:0.05mm;fill:none" d="M310.000000,210.000000L330.000000,210.000000L330.000000,230.000000L330.000000,230.000000L330.000000,230.000000"/>
    <path transform="matrix(0.500000 0.000000 0.000000 -0.500000 -304.364990 425.987000)" style="stroke:#00e0e0;stroke-width:0.05mm;fill:none" d="M310.000000,210.000000L330.000000,210.000000L330.000000,230.000000L330.000000,230.000000L330.000000,230.000000"/>
    <path transform="matrix(0.500000 0.000000 0.000000 0.500000 -304.356995 115.994003)" style="stroke:#00e0e0;stroke-width:0.05mm;fill:none" d="M310.000000,210.000000L330.000000,210.000000L330.000000,230.000000L330.000000,230.000000L330.000000,230.000000"/>
    <path transform="matrix(-1.000000 0.000000 0.000000 1.000000 174.412994 25.088900)" style="stroke:#00e0e0;stroke-width:0.05mm;fill:none" d="M310.000000,210.000000L330.000000,210.000000L330.000000,230.000000L330.000000,230.000000L330.000000,230.000000"/>
    <path transform="matrix(-1.000000 0.000000 0.000000 -1.000000 174.406998 545.065979)" style="stroke:#00e0e0;stroke-width:0.05mm;fill:none" d="M310.000000,210.000000L330.000000,210.000000L330.000000,230.000000L330.000000,230.000000L330.000000,230.000000"/>
    <path transform="matrix(1.000000 0.000000 0.000000 -1.000000 -415.606995 545.072021)" style="stroke:#00e0e0;stroke-width:0.05mm;fill:none" d="M310.000000,210.000000L330.000000,210.000000L330.000000,230.000000L330.000000,230.000000L330.000000,230.000000"/>
    <path transform="translate(-415.566986 25.088900)" style="stroke:#00e0e0;stroke-width:0.05mm;fill:none" d="M310.000000,210.000000L330.000000,210.000000L330.000000,230.000000L330.000000,230.000000L330.000000,230.000000"/>
    <circle transform="matrix(-1.587500 0.000000 0.000000 1.587500 -151.880005 249.059006)" style="stroke:#ff8000;stroke-width:0.05mm;fill:none" r="1.000000"/>
    <circle transform="matrix(-1.587500 0.000000 0.000000 1.587500 -89.624001 249.059006)" style="stroke:#ff8000;stroke-width:0.05mm;fill:none" r="1.000000"/>
    <circle transform="matrix(-1.587500 0.000000 0.000000 1.587500 -89.624001 325.658997)" style="stroke:#ff8000;stroke-width:0.05mm;fill:none" r="1.000000"/>
    <circle transform="matrix(-1.587500 0.000000 0.000000 1.587500 -151.856003 325.658997)" style="stroke:#ff8000;stroke-width:0.05mm;fill:none" r="1.000000"/>
    <circle transform="matrix(-1.587500 0.000000 0.000000 1.587500 -205.707993 234.988998)" style="stroke:#ff8000;stroke-width:0.05mm;fill:none" r="1.000000"/>
    <circle transform="matrix(-1.587500 0.000000 0.000000 1.587500 -143.451996 234.988998)" style="stroke:#ff8000;stroke-width:0.05mm;fill:none" r="1.000000"/>
    <circle transform="matrix(-1.587500 0.000000 0.000000 1.587500 -143.451996 311.588989)" style="stroke:#ff8000;stroke-width:0.05mm;fill:none" r="1.000000"/>
    <circle transform="matrix(-1.587500 0.000000 0.000000 1.587500 -205.682999 311.588989)" style="stroke:#ff8000;stroke-width:0.05mm;fill:none" r="1.000000"/>
    <path transform="matrix(-0.500000 0.000000 0.000000 0.500000 65.370598 115.949997)" style="stroke:#00e0e0;stroke-width:0.05mm;fill:none" d="M310.000000,210.000000L330.000000,210.000000L330.000000,230.000000L330.000000,230.000000L330.000000,230.000000"/>
    <path transform="matrix(-0.500000 0.000000 0.000000 -0.500000 65.395500 425.963989)" style="stroke:#00e0e0;stroke-width:0.05mm;fill:none" d="M310.000000,210.000000L330.000000,210.000000L330.000000,230.000000L330.000000,230.000000L330.000000,230.000000"/>
    <path transform="matrix(0.500000 0.000000 0.000000 -0.500000 -194.606995 425.964996)" style="stroke:#00e0e0;stroke-width:0.05mm;fill:none" d="M310.000000,210.000000L330.000000,210.000000L330.000000,230.000000L330.000000,230.000000L330.000000,230.000000"/>
    <path transform="matrix(0.500000 0.000000 0.000000 0.500000 -194.598999 115.972000)" style="stroke:#00e0e0;stroke-width:0.05mm;fill:none" d="M310.000000,210.000000L330.000000,210.000000L330.000000,230.000000L330.000000,230.000000L330.000000,230.000000"/>
    <circle transform="matrix(-1.587500 0.000000 0.000000 1.587500 -33.668999 234.988998)" style="stroke:#ff8000;stroke-width:0.05mm;fill:none" r="1.000000"/>
    <circle transform="matrix(-1.587500 0.000000 0.000000 1.587500 -95.925003 234.988998)" style="stroke:#ff8000;stroke-width:0.05mm;fill:none" r="1.000000"/>
    <circle transform="matrix(-1.587500 0.000000 0.000000 1.587500 -33.668999 311.588989)" style="stroke:#ff8000;stroke-width:0.05mm;fill:none" r="1.000000"/>
    <circle transform="matrix(-1.587500 0.000000 0.000000 1.587500 -95.900002 311.588989)" style="stroke:#ff8000;stroke-width:0.05mm;fill:none" r="1.000000"/>
</svg>
